<?xml version="1.0" encoding="utf-8"?>
<!-- Generator: Adobe Illustrator 23.0.0, SVG Export Plug-In . SVG Version: 6.00 Build 0)  -->
<svg version="1.1" id="Livello_1" xmlns="http://www.w3.org/2000/svg" xmlns:xlink="http://www.w3.org/1999/xlink" x="0px" y="0px"
	 viewBox="0 0 255 56.61" style="enable-background:new 0 0 255 56.61;" xml:space="preserve">
<style type="text/css">
	.st0{fill:#C9CACC;}
	.st1{fill:#EB1E51;}
	.st2{fill:#B1B2B4;}
	.st3{fill:#C31F44;}
</style>
<g>
	<g>
		<g>
			<path class="st0" d="M47.17,30.14l10.59,10.59l-9.06-0.01l-8.48-8.48c-1.38-1.38-3.63-1.38-5.01,0L17.38,50.05H8.73L28.2,30.17
				c0.75-0.75,1.77-1.18,2.83-1.18l13.28-0.03C45.38,28.96,46.41,29.38,47.17,30.14z"/>
			<path class="st1" d="M47.17,26.47l10.59-10.59l-9.06,0.01l-8.48,8.48c-1.38,1.38-3.63,1.38-5.01,0L17.38,6.56H8.73L28.2,26.44
				c0.75,0.75,1.77,1.18,2.83,1.18l13.28,0.03C45.38,27.65,46.41,27.23,47.17,26.47z"/>
		</g>
		<g>
			<path class="st2" d="M33.55,29c-1.06,0-2.08,0.43-2.83,1.18L11.25,50.05H8.73L28.2,30.17c0.75-0.75,1.77-1.18,2.83-1.18H33.55z"
				/>
			<path class="st2" d="M51.18,40.72l-8.14-8.15c-1.39-1.34-2.59-1.37-5.49-1.37c0.76,0.03,1.49,0.02,2.52,0.91l8.63,8.61
				L51.18,40.72z"/>
			<path class="st3" d="M51.23,15.89l-8.07,8.07c-1.34,1.22-2.53,1.44-5.56,1.45c0.43-0.02,1.57,0.03,2.71-1.15l8.41-8.37H51.23z"/>
			<path class="st3" d="M33.55,27.61c-1.06,0-2.08-0.43-2.83-1.18L11.25,6.56H8.73L28.2,26.44c0.75,0.75,1.77,1.18,2.83,1.18H33.55z
				"/>
		</g>
	</g>
	<g>
		<g>
			<path class="st0" d="M67.87,22.18l-4.58-6.1h3.05l3.05,4.08l3.05-4.08h3.05l-4.58,6.1l4.58,6.1h-3.05l-3.05-4.08l-3.05,4.08
				h-3.05L67.87,22.18z"/>
			<path class="st0" d="M97.71,18.51h-9.77v2.44h7.33c1.63,0,2.44,0.81,2.44,2.44v2.44c0,1.63-0.82,2.44-2.44,2.44h-9.77v-2.44h9.77
				V23.4h-7.33c-1.63,0-2.44-0.81-2.44-2.44v-2.44c0-1.63,0.81-2.44,2.44-2.44h9.77V18.51z"/>
			<path class="st0" d="M107.72,16.07h12.21v2.44h-4.88v9.77h-2.44v-9.77h-4.88V16.07z"/>
			<path class="st0" d="M134.82,23.4h-2.44v4.88h-2.44V16.07h9.77c1.63,0,2.44,0.82,2.44,2.44v2.44c0,1.63-0.8,2.44-2.4,2.44h-1.91
				l4.31,4.88h-3.02L134.82,23.4z M132.38,18.51v2.44h7.33v-2.44H132.38z"/>
			<path class="st0" d="M154.59,23.4v2.44h9.77v2.44h-12.21V16.07h12.21v2.44h-9.77v2.44h8.19v2.44H154.59z"/>
			<path class="st0" d="M177.61,27.06l-0.46,1.22h-2.78l4.88-12.21h2.44l4.88,12.21h-2.86l-0.46-1.22H177.61z M182.34,24.62
				l-1.87-4.88l-1.91,4.88H182.34z"/>
			<path class="st0" d="M196.58,28.28v-9.77c0-1.63,0.81-2.44,2.44-2.44h7.33c1.63,0,2.44,0.82,2.44,2.44v9.77h-2.44v-9.77h-2.44
				v9.77h-2.44v-9.77h-2.44v9.77H196.58z"/>
		</g>
		<g>
			<polygon class="st0" points="228.7,22.96 229.91,22.96 229.31,21.4 			"/>
			<rect x="234.29" y="22.57" class="st0" width="2.34" height="0.78"/>
			<rect x="234.29" y="21.01" class="st0" width="2.34" height="0.78"/>
			<path class="st0" d="M244.26,16.07h-23.45c-1.11,0-2.01,0.9-2.01,2.01v8.2c0,1.11,0.9,2.01,2.01,2.01h23.45
				c1.11,0,2.01-0.9,2.01-2.01v-8.2C246.27,16.97,245.37,16.07,244.26,16.07z M225.11,24.13h-3.9v-3.9h0.78v3.12h3.12V24.13z
				 M230.35,24.13l-0.15-0.39h-1.8l-0.15,0.39h-0.89l1.56-3.9h0.78l1.56,3.9H230.35z M237.41,21.79c0,0.26-0.13,0.39-0.39,0.39
				c0.26,0,0.39,0.13,0.39,0.39v0.78c0,0.52-0.26,0.78-0.78,0.78h-3.12v-3.9h3.12c0.52,0,0.78,0.26,0.78,0.78V21.79z M243.56,21.01
				h-3.12v0.78h2.34c0.52,0,0.78,0.26,0.78,0.78v0.78c0,0.52-0.26,0.78-0.78,0.78h-3.12v-0.78h3.12v-0.78h-2.34
				c-0.52,0-0.78-0.26-0.78-0.78v-0.78c0-0.52,0.26-0.78,0.78-0.78h3.12V21.01z"/>
		</g>
	</g>
	<g>
		<path class="st1" d="M63.29,36.52h4.11v0.82h-1.64v3.28h-0.82v-3.28h-1.64V36.52z"/>
		<path class="st1" d="M72.63,38.98v0.82h3.28v0.82H71.8v-4.11h4.11v0.82h-3.28v0.82h2.69v0.82H72.63z"/>
		<path class="st1" d="M80.32,39.8v-2.46c0-0.55,0.27-0.82,0.82-0.82h3.28v0.82h-3.28v2.46h3.28v0.82h-3.28
			C80.59,40.63,80.32,40.35,80.32,39.8z"/>
		<path class="st1" d="M89.65,36.52v1.64h2.46v-1.64h0.82v4.11h-0.82v-1.64h-2.46v1.64h-0.82v-4.11H89.65z"/>
		<path class="st1" d="M97.34,40.63v-4.11h0.82l2.46,2.91v-2.91h0.82v4.11h-0.82l-2.46-2.82v2.82H97.34z"/>
		<path class="st1" d="M106.68,36.52h2.46c0.55,0,0.82,0.27,0.82,0.82v2.46c0,0.55-0.27,0.82-0.82,0.82h-2.46
			c-0.55,0-0.82-0.27-0.82-0.82v-2.46C105.86,36.79,106.13,36.52,106.68,36.52z M106.68,37.34v2.46h2.46v-2.46H106.68z"/>
		<path class="st1" d="M118.48,40.63h-4.11v-4.11h0.82v3.28h3.28V40.63z"/>
		<path class="st1" d="M123.71,36.52h2.46c0.55,0,0.82,0.27,0.82,0.82v2.46c0,0.55-0.27,0.82-0.82,0.82h-2.46
			c-0.55,0-0.82-0.27-0.82-0.82v-2.46C122.89,36.79,123.16,36.52,123.71,36.52z M123.71,37.34v2.46h2.46v-2.46H123.71z"/>
		<path class="st1" d="M135.51,40.63h-3.28c-0.55,0-0.82-0.27-0.82-0.82v-2.46c0-0.55,0.27-0.82,0.82-0.82h3.28v0.82h-3.28v2.46
			h2.46v-0.82h-0.82v-0.82h1.64V40.63z"/>
		<path class="st1" d="M141.56,40.63v-1.64l-1.64-2.46h1.03l1.03,1.44l1.04-1.44h1.01l-1.64,2.46v1.64H141.56z"/>
		<path class="st1" d="M156.94,40.63v-3.28c0-0.55,0.27-0.82,0.82-0.82h2.46c0.55,0,0.82,0.27,0.82,0.82v3.28h-0.82v-3.28h-0.82
			v3.28h-0.82v-3.28h-0.82v3.28H156.94z"/>
		<path class="st1" d="M166.55,40.22l-0.15,0.41h-0.94l1.64-4.11h0.82l1.64,4.11h-0.96l-0.15-0.41H166.55z M168.14,39.39l-0.63-1.64
			l-0.64,1.64H168.14z"/>
		<path class="st1" d="M173.97,40.63v-4.11h3.28c0.55,0,0.82,0.27,0.82,0.82v2.46c0,0.55-0.27,0.82-0.82,0.82H173.97z M174.79,39.8
			h2.46v-2.46h-2.46V39.8z"/>
		<path class="st1" d="M183.3,38.98v0.82h3.28v0.82h-4.11v-4.11h4.11v0.82h-3.28v0.82H186v0.82H183.3z"/>
		<path class="st1" d="M203.62,37.34h-3.28v0.82h2.46c0.55,0,0.82,0.27,0.82,0.82v0.82c0,0.55-0.27,0.82-0.82,0.82h-3.28V39.8h3.28
			v-0.82h-2.46c-0.55,0-0.82-0.27-0.82-0.82v-0.82c0-0.55,0.27-0.82,0.82-0.82h3.28V37.34z"/>
		<path class="st1" d="M210.49,36.52v4.11h-0.82v-4.11H210.49z"/>
		<path class="st1" d="M216.54,40.63v-3.28c0-0.55,0.27-0.82,0.82-0.82h2.46c0.55,0,0.82,0.27,0.82,0.82v3.28h-0.82v-3.28H219v3.28
			h-0.82v-3.28h-0.82v3.28H216.54z"/>
		<path class="st1" d="M225.87,40.63h-0.82v-4.11h3.28c0.55,0,0.82,0.27,0.82,0.82v0.82c0,0.55-0.27,0.82-0.82,0.82h-2.46V40.63z
			 M228.34,38.16v-0.82h-2.46v0.82H228.34z"/>
		<path class="st1" d="M237.67,40.63h-4.11v-4.11h0.82v3.28h3.28V40.63z"/>
		<path class="st1" d="M242.9,38.98v0.82h3.28v0.82h-4.11v-4.11h4.11v0.82h-3.28v0.82h2.69v0.82H242.9z"/>
	</g>
</g>
</svg>
